<svg xmlns="http://www.w3.org/2000/svg" viewBox="0 0 300 400" fill="none">
  <defs>
    <linearGradient id="grad6" x1="0%" y1="0%" x2="100%" y2="100%">
      <stop offset="0%" style="stop-color:#ff00cc;stop-opacity:0.5" />
      <stop offset="25%" style="stop-color:#00ff00;stop-opacity:0.5" />
      <stop offset="50%" style="stop-color:#ffcc00;stop-opacity:0.5" />
      <stop offset="75%" style="stop-color:#00ffff;stop-opacity:0.5" />
      <stop offset="100%" style="stop-color:#ff00cc;stop-opacity:0.5" />
    </linearGradient>
    <radialGradient id="rainbow" cx="50%" cy="50%">
      <stop offset="0%" style="stop-color:#ffffff;stop-opacity:0.8" />
      <stop offset="100%" style="stop-color:#ff00cc;stop-opacity:0.3" />
    </radialGradient>
  </defs>
  <!-- Box Background -->
  <rect width="300" height="400" fill="#f5f5dc"/>
  <rect width="300" height="400" fill="url(#grad6)"/>
  <rect x="10" y="10" width="280" height="380" fill="none" stroke="#ff00cc" stroke-width="3"/>
  
  <!-- Rainbow -->
  <path d="M 50 150 Q 150 50 250 150" fill="none" stroke="#ff00cc" stroke-width="8" opacity="0.6"/>
  <path d="M 50 150 Q 150 50 250 150" fill="none" stroke="#ffcc00" stroke-width="8" opacity="0.5" transform="translate(0, 10)"/>
  <path d="M 50 150 Q 150 50 250 150" fill="none" stroke="#00ff00" stroke-width="8" opacity="0.5" transform="translate(0, 20)"/>
  <path d="M 50 150 Q 150 50 250 150" fill="none" stroke="#00ffff" stroke-width="8" opacity="0.5" transform="translate(0, 30)"/>
  
  <!-- Lucky Stars/Marshmallows -->
  <polygon points="80,190 85,200 95,200 87,206 90,216 80,210 70,216 73,206 65,200 75,200" fill="#ff00cc" opacity="0.6"/>
  <polygon points="220,190 225,200 235,200 227,206 230,216 220,210 210,216 213,206 205,200 215,200" fill="#00ff00" opacity="0.6"/>
  <circle cx="150" cy="205" r="8" fill="#ffcc00" opacity="0.6"/>
  
  <!-- Text -->
  <text x="150" y="270" font-family="fantasy" font-size="32" font-weight="bold" fill="#ff00cc" text-anchor="middle">
    LUCKY
  </text>
  <text x="150" y="305" font-family="fantasy" font-size="32" font-weight="bold" fill="#00ff00" text-anchor="middle">
    CHARMS
  </text>
  <text x="150" y="335" font-family="serif" font-size="16" font-style="italic" fill="#0a0a0a" text-anchor="middle" opacity="0.7">
    Leprechaun's Revenge
  </text>
  <text x="150" y="360" font-family="monospace" font-size="12" fill="#0a0a0a" text-anchor="middle" opacity="0.6">
    Enchanted Marshlands • 1994
  </text>
  
  <!-- More Marshmallow Shapes -->
  <rect x="60" y="360" width="15" height="15" fill="#ff00cc" opacity="0.4" rx="2"/>
  <circle cx="230" cy="367" r="8" fill="#00ff00" opacity="0.4"/>
</svg>
