<svg xmlns="http://www.w3.org/2000/svg" viewBox="0 0 300 400" fill="none">
  <defs>
    <linearGradient id="grad5" x1="0%" y1="0%" x2="100%" y2="100%">
      <stop offset="0%" style="stop-color:#d4af37;stop-opacity:0.8" />
      <stop offset="50%" style="stop-color:#cd7f32;stop-opacity:0.8" />
      <stop offset="100%" style="stop-color:#8b4513;stop-opacity:0.8" />
    </linearGradient>
  </defs>
  <!-- Box Background -->
  <rect width="300" height="400" fill="url(#grad5)"/>
  <rect x="10" y="10" width="280" height="380" fill="none" stroke="#8b4513" stroke-width="3"/>
  
  <!-- Cinnamon Swirls -->
  <path d="M 150 80 Q 170 70 180 90 Q 190 110 170 120 Q 150 130 130 120 Q 110 110 120 90 Q 130 70 150 80" 
        fill="none" stroke="#8b4513" stroke-width="4" opacity="0.5"/>
  <path d="M 90 140 Q 100 130 110 140 Q 120 150 110 160 Q 100 170 90 160 Q 80 150 90 140" 
        fill="none" stroke="#8b4513" stroke-width="3" opacity="0.4"/>
  <path d="M 210 140 Q 220 130 230 140 Q 240 150 230 160 Q 220 170 210 160 Q 200 150 210 140" 
        fill="none" stroke="#8b4513" stroke-width="3" opacity="0.4"/>
  
  <!-- Text -->
  <text x="150" y="220" font-family="sans-serif" font-size="28" font-weight="bold" fill="#8b4513" text-anchor="middle">
    Cinnamon
  </text>
  <text x="150" y="250" font-family="sans-serif" font-size="32" font-weight="bold" fill="#8b4513" text-anchor="middle">
    TOAST
  </text>
  <text x="150" y="280" font-family="sans-serif" font-size="28" font-weight="bold" fill="#8b4513" text-anchor="middle">
    CRUNCH
  </text>
  <text x="150" y="310" font-family="serif" font-size="16" font-style="italic" fill="#8b4513" text-anchor="middle" opacity="0.7">
    Millennium Edition
  </text>
  <text x="150" y="335" font-family="monospace" font-size="14" fill="#8b4513" text-anchor="middle" opacity="0.6">
    Y2K Valley • Est. 2000
  </text>
  
  <!-- Decorative Toast Squares -->
  <rect x="70" y="350" width="40" height="30" fill="#cd7f32" opacity="0.4" rx="3"/>
  <rect x="130" y="360" width="40" height="30" fill="#cd7f32" opacity="0.5" rx="3"/>
  <rect x="190" y="350" width="40" height="30" fill="#cd7f32" opacity="0.4" rx="3"/>
</svg>
